# xmcd CD database file
#
# Track frame offsets:
#	182
#	26055
#	30112
#	39875
#	54517
#	66832
#	79180
#	86990
#	92961
#	117442
#	127687
#	139942
#	166207
#
# Disc length: 2503 seconds
#
# Revision: 0
# Processed by: cddbd v1.5.2PL0 Copyright (c) Steve Scherf et al.
# Submitted via: CDex 1.51
#
DISCID=a309c50d
DTITLE=Music by Tomasz Stanko - A Farewell to Maria
DYEAR=1993
DGENRE=Jazz
TTITLE0=Leitmotif
TTITLE1=Love Motive
TTITLE2=Ave Maria
TTITLE3=Love Motive in a Church
TTITLE4=Wedding Waltz
TTITLE5=Love-Main Scene
TTITLE6=Wedding Tango
TTITLE7=Love Scene-Farewell
TTITLE8=Wedding Party
TTITLE9=Love Theme
TTITLE10=The Slower Waltz from Wedding Party
TTITLE11=Wedding Party - "Orgy"
TTITLE12=Conclusion
EXTD=YEAR: 1993
EXTT0=
EXTT1=
EXTT2=
EXTT3=
EXTT4=
EXTT5=
EXTT6=
EXTT7=
EXTT8=
EXTT9=
EXTT10=
EXTT11=
EXTT12=
PLAYORDER=
